<svg width="24" height="24" viewBox="0 0 24 24" fill="none" xmlns="http://www.w3.org/2000/svg">
<path d="M20.661 7.22006L12.815 19.7141C12.7194 19.8658 12.5867 19.9908 12.4295 20.0772C12.2723 20.1636 12.0957 20.2086 11.9164 20.208C11.737 20.2074 11.5607 20.1612 11.4041 20.0738C11.2474 19.9863 11.1156 19.8605 11.021 19.7081L3.32802 7.21406C3.11209 6.86431 2.99847 6.46108 3.00002 6.05006C3.00923 5.44286 3.25924 4.86419 3.69506 4.44131C4.13088 4.01843 4.71682 3.78597 5.32402 3.79506H18.686C19.963 3.79406 21 4.80006 21 6.04406C21 6.45706 20.884 6.86506 20.661 7.22006ZM5.21802 6.80006L10.941 15.6261V5.91206H5.81602C5.22402 5.91206 4.95902 6.30406 5.21802 6.80206M13.058 15.6281L18.783 6.80006C19.048 6.30306 18.777 5.91006 18.184 5.91006H13.06L13.058 15.6281Z" />
</svg>
