<svg xmlns="http://www.w3.org/2000/svg" viewBox="0 0 24 24">
  <path d="M12.146 16.5959C12.2415 16.6881 12.3177 16.7985 12.3701 16.9205C12.4225 17.0425 12.4501 17.1737 12.4513 17.3065C12.4524 17.4393 12.4271 17.5709 12.3768 17.6938C12.3265 17.8167 12.2523 17.9284 12.1584 18.0223C12.0645 18.1162 11.9529 18.1904 11.83 18.2407C11.7071 18.291 11.5754 18.3163 11.4426 18.3151C11.3098 18.314 11.1786 18.2864 11.0566 18.234C10.9346 18.1816 10.8242 18.1054 10.732 18.0099L9.318 16.5959L6.49 19.4249C6.67751 19.6125 6.7828 19.867 6.7827 20.1322C6.78261 20.3975 6.67714 20.6519 6.4895 20.8394C6.30186 21.0269 6.04742 21.1322 5.78215 21.1321C5.51688 21.132 5.26251 21.0265 5.075 20.8389L3.661 19.4249C3.47336 19.2374 3.36789 18.983 3.3678 18.7177C3.3677 18.4525 3.47299 18.198 3.6605 18.0104C3.84801 17.8227 4.10238 17.7173 4.36765 17.7172C4.63292 17.7171 4.88736 17.8224 5.075 18.0099L7.904 15.1819L6.49 13.7679C6.30784 13.5793 6.20705 13.3267 6.20933 13.0645C6.2116 12.8023 6.31677 12.5515 6.50218 12.3661C6.68759 12.1807 6.9384 12.0755 7.2006 12.0732C7.4628 12.0709 7.7154 12.1717 7.904 12.3539L12.146 16.5959ZM12.854 15.8889L8.61 11.6459L17.096 3.16089L20.632 3.86789L21.339 7.40389L12.854 15.8889Z" />
</svg>