<svg xmlns="http://www.w3.org/2000/svg" viewBox="0 0 16 16" >
  <path d="M13.02 4.27339C13.2127 4.45553 13.3252 4.70674 13.3327 4.97177C13.3402 5.2368 13.2421 5.49397 13.06 5.68672L7.39337 11.6867C7.30153 11.7838 7.19117 11.8615 7.0688 11.9152C6.94643 11.9689 6.81455 11.9975 6.68093 11.9993C6.54731 12.0012 6.41468 11.9763 6.29086 11.926C6.16704 11.8758 6.05455 11.8012 5.96004 11.7067L2.96004 8.70672C2.7834 8.51715 2.68724 8.26642 2.69181 8.00736C2.69638 7.74829 2.80133 7.50111 2.98454 7.31789C3.16776 7.13467 3.41494 7.02972 3.67401 7.02515C3.93308 7.02058 4.18381 7.11675 4.37337 7.29339L6.64671 9.56539L11.6067 4.31339C11.7889 4.12072 12.0401 4.00827 12.3051 4.00077C12.5701 3.99327 12.8273 4.09133 13.02 4.27339Z"/>
</svg>