<svg xmlns="http://www.w3.org/2000/svg" width="24" height="24" viewBox="0 0 24 24" >
  <path d="M9.836 2.03397C9.948 2.07264 10.0577 2.11797 10.165 2.16997L11.448 2.80197C11.6197 2.8865 11.8086 2.93046 12 2.93046C12.1914 2.93046 12.3803 2.8865 12.552 2.80197L13.835 2.16997C14.159 2.01045 14.5113 1.91633 14.8717 1.89297C15.2321 1.86961 15.5936 1.91747 15.9355 2.03383C16.2774 2.15018 16.5931 2.33275 16.8644 2.5711C17.1358 2.80945 17.3575 3.09892 17.517 3.42297L17.59 3.58497L17.653 3.75197L18.113 5.10497C18.238 5.47297 18.527 5.76097 18.894 5.88597L20.248 6.34597C20.6184 6.47198 20.9576 6.67557 21.243 6.94313C21.5284 7.21069 21.7535 7.53607 21.9031 7.89754C22.0528 8.25901 22.1235 8.64824 22.1108 9.03925C22.098 9.43026 22.0019 9.81405 21.829 10.165L21.198 11.448C21.1135 11.6197 21.0695 11.8086 21.0695 12C21.0695 12.1914 21.1135 12.3802 21.198 12.552L21.829 13.835C22.0018 14.1859 22.0977 14.5695 22.1104 14.9604C22.1231 15.3513 22.0522 15.7404 21.9026 16.1018C21.753 16.4631 21.528 16.7884 21.2427 17.0559C20.9573 17.3234 20.6182 17.5269 20.248 17.653L18.894 18.113C18.7129 18.1748 18.5484 18.2773 18.4131 18.4127C18.2779 18.5481 18.1756 18.7128 18.114 18.894L17.653 20.248C17.527 20.6182 17.3234 20.9573 17.0559 21.2426C16.7884 21.528 16.4632 21.7529 16.1018 21.9026C15.7405 22.0522 15.3514 22.123 14.9605 22.1103C14.5696 22.0976 14.1859 22.0017 13.835 21.829L12.552 21.198C12.3803 21.1134 12.1914 21.0695 12 21.0695C11.8086 21.0695 11.6197 21.1134 11.448 21.198L10.165 21.829C9.81412 22.0017 9.43043 22.0976 9.03953 22.1103C8.64864 22.123 8.25953 22.0522 7.89819 21.9026C7.53684 21.7529 7.21157 21.528 6.94408 21.2426C6.67659 20.9573 6.47303 20.6182 6.347 20.248L5.887 18.894C5.82511 18.7127 5.72241 18.5482 5.58682 18.4129C5.45124 18.2777 5.28639 18.1754 5.105 18.114L3.752 17.653C3.38167 17.527 3.04247 17.3236 2.75704 17.0561C2.47161 16.7887 2.24652 16.4634 2.09679 16.1021C1.94706 15.7407 1.87614 15.3516 1.88876 14.9606C1.90139 14.5697 1.99727 14.1859 2.17 13.835L2.802 12.552C2.88653 12.3802 2.93049 12.1914 2.93049 12C2.93049 11.8086 2.88653 11.6197 2.802 11.448L2.17 10.165C1.99727 9.81403 1.90139 9.43027 1.88876 9.03933C1.87614 8.64838 1.94706 8.25924 2.09679 7.89788C2.24652 7.53652 2.47161 7.21127 2.75704 6.94382C3.04247 6.67638 3.38167 6.4729 3.752 6.34697L5.105 5.88697C5.28641 5.82521 5.4512 5.72257 5.58662 5.58698C5.72204 5.45138 5.82447 5.28646 5.886 5.10497L6.346 3.75197C6.46228 3.40996 6.64481 3.09421 6.88315 2.82277C7.1215 2.55132 7.41098 2.32949 7.73508 2.16994C8.05918 2.0104 8.41153 1.91628 8.77201 1.89295C9.13249 1.86962 9.49404 1.91754 9.836 2.03397ZM15.47 8.96897L10.05 14.389L8.076 12.019C8.01384 11.9406 7.93664 11.8755 7.84894 11.8274C7.76124 11.7794 7.66482 11.7493 7.56534 11.7391C7.46586 11.7288 7.36533 11.7386 7.26968 11.7678C7.17402 11.7969 7.08517 11.845 7.00834 11.909C6.93151 11.973 6.86826 12.0517 6.82232 12.1406C6.77637 12.2294 6.74865 12.3265 6.7408 12.4262C6.73294 12.5259 6.7451 12.6262 6.77656 12.7211C6.80802 12.816 6.85815 12.9037 6.924 12.979L9.424 15.979C9.49066 16.059 9.57325 16.1243 9.66653 16.1706C9.7598 16.217 9.86171 16.2434 9.96576 16.2482C10.0698 16.253 10.1737 16.2361 10.2709 16.1985C10.368 16.1609 10.4563 16.1035 10.53 16.03L16.53 10.03C16.6037 9.96131 16.6628 9.87851 16.7038 9.78651C16.7448 9.69451 16.7668 9.5952 16.7686 9.49449C16.7704 9.39379 16.7518 9.29376 16.7141 9.20037C16.6764 9.10699 16.6203 9.02215 16.549 8.95093C16.4778 8.87971 16.393 8.82357 16.2996 8.78585C16.2062 8.74813 16.1062 8.7296 16.0055 8.73138C15.9048 8.73316 15.8055 8.7552 15.7135 8.79619C15.6215 8.83718 15.5387 8.89629 15.47 8.96997" />
</svg>