<svg width="16" height="17" viewBox="0 0 16 17"  xmlns="http://www.w3.org/2000/svg">
<path d="M11.333 15.1667C10.7775 15.1667 10.3052 14.9723 9.91634 14.5834C9.52745 14.1945 9.33301 13.7223 9.33301 13.1667C9.33301 13.1 9.34967 12.9445 9.38301 12.7L4.69967 9.96671C4.5219 10.1334 4.31634 10.264 4.08301 10.3587C3.84967 10.4534 3.59967 10.5005 3.33301 10.5C2.77745 10.5 2.30523 10.3056 1.91634 9.91671C1.52745 9.52782 1.33301 9.0556 1.33301 8.50004C1.33301 7.94448 1.52745 7.47226 1.91634 7.08337C2.30523 6.69448 2.77745 6.50004 3.33301 6.50004C3.59967 6.50004 3.84967 6.54737 4.08301 6.64204C4.31634 6.73671 4.5219 6.86715 4.69967 7.03337L9.38301 4.30004C9.36079 4.22226 9.34701 4.14737 9.34167 4.07537C9.33634 4.00337 9.33345 3.92271 9.33301 3.83337C9.33301 3.27782 9.52745 2.8056 9.91634 2.41671C10.3052 2.02782 10.7775 1.83337 11.333 1.83337C11.8886 1.83337 12.3608 2.02782 12.7497 2.41671C13.1386 2.8056 13.333 3.27782 13.333 3.83337C13.333 4.38893 13.1386 4.86115 12.7497 5.25004C12.3608 5.63893 11.8886 5.83337 11.333 5.83337C11.0663 5.83337 10.8163 5.78604 10.583 5.69137C10.3497 5.59671 10.1441 5.46626 9.96634 5.30004L5.28301 8.03337C5.30523 8.11115 5.31923 8.18626 5.32501 8.25871C5.33079 8.33115 5.33345 8.4116 5.33301 8.50004C5.33256 8.58848 5.3299 8.66915 5.32501 8.74204C5.32012 8.81493 5.30612 8.88982 5.28301 8.96671L9.96634 11.7C10.1441 11.5334 10.3497 11.4029 10.583 11.3087C10.8163 11.2145 11.0663 11.1672 11.333 11.1667C11.8886 11.1667 12.3608 11.3612 12.7497 11.75C13.1386 12.1389 13.333 12.6112 13.333 13.1667C13.333 13.7223 13.1386 14.1945 12.7497 14.5834C12.3608 14.9723 11.8886 15.1667 11.333 15.1667Z" />
</svg>
