<svg xmlns="http://www.w3.org/2000/svg" viewBox="0 0 24 24" >
  <path fill-rule="evenodd" clip-rule="evenodd" d="M10.8355 3.39998C11.2681 3.13817 11.7641 2.99976 12.2698 2.99976C12.7754 2.99976 13.2714 3.13817 13.704 3.39998L14.7225 4.02298C16.1515 4.89648 17.779 5.09098 19.414 5.28698C19.9425 5.35048 20.4715 5.41348 20.995 5.49998C20.995 5.49998 21.0065 6.41698 20.9945 6.83298L20.89 10.4085C20.8 13.475 19.4365 16.3825 17.0975 18.4955C15.994 19.492 14.8525 20.3925 13.541 21.1405C13.1544 21.3589 12.7211 21.4814 12.2774 21.4977C11.8337 21.514 11.3925 21.4235 10.991 21.234C9.4765 20.514 8.1355 19.601 6.911 18.4955C4.572 16.3825 3.2085 13.475 3.119 10.4085L3.015 6.84448C3.0025 6.42248 3.015 5.49998 3.015 5.49998C3.44 5.44998 3.873 5.40848 4.3095 5.36698C6.236 5.18398 8.2265 4.99498 9.8595 3.99698L10.8355 3.39998ZM11 11V7.49998H13V11H16.5V13H13V16.5H11V13H7.5V11H11Z" />
</svg>