<svg width="119" height="37" viewBox="0 0 119 37" fill="none" xmlns="http://www.w3.org/2000/svg">
<g filter="url(#filter0_ddddddi_6019_94)">
<path d="M14.8705 25.5508V14.555H10.7998V11.028H22.7241V14.555H18.6739V25.5508H14.8705Z" fill="#FFF6D4"/>
<path d="M29.6167 25.7998C28.342 25.7998 27.2455 25.5647 26.3272 25.0944C25.4089 24.6241 24.703 23.9533 24.2096 23.082C23.7299 22.1968 23.4901 21.1456 23.4901 19.9284V11.028H27.2935V19.9284C27.2935 20.4125 27.3894 20.8275 27.5813 21.1732C27.7732 21.519 28.0405 21.7818 28.3831 21.9616C28.7395 22.1414 29.1644 22.2313 29.6578 22.2313C30.1512 22.2313 30.5761 22.1414 30.9324 21.9616C31.2888 21.7818 31.5561 21.519 31.7343 21.1732C31.9261 20.8275 32.0221 20.4125 32.0221 19.9284V11.028H35.8255V19.9284C35.8255 21.1456 35.5788 22.1968 35.0854 23.082C34.592 23.9533 33.8792 24.6241 32.9472 25.0944C32.0289 25.5647 30.9187 25.7998 29.6167 25.7998Z" fill="#FFF6D4"/>
<path d="M40.0385 25.5508V14.555H35.9678V11.028H47.8921V14.555H43.8419V25.5508H40.0385Z" fill="#FFF6D4"/>
<path d="M55.8538 25.7998C54.3461 25.7998 53.0097 25.4817 51.8447 24.8454C50.6934 24.1954 49.7888 23.3102 49.1309 22.1898C48.473 21.0557 48.1441 19.7625 48.1441 18.3102C48.1441 16.8441 48.473 15.5508 49.1309 14.4305C49.7888 13.2963 50.6934 12.4111 51.8447 11.7749C52.996 11.1248 54.3187 10.7998 55.8126 10.7998C57.3203 10.7998 58.6498 11.1248 59.8011 11.7749C60.9524 12.4111 61.857 13.2963 62.5149 14.4305C63.1728 15.5508 63.5017 16.8441 63.5017 18.3102C63.5017 19.7625 63.1728 21.0557 62.5149 22.1898C61.8707 23.3102 60.973 24.1954 59.8217 24.8454C58.6703 25.4817 57.3477 25.7998 55.8538 25.7998ZM55.8538 22.2728C56.5939 22.2728 57.2449 22.1069 57.8069 21.7749C58.3688 21.4291 58.8074 20.9589 59.1226 20.3641C59.4379 19.7694 59.5955 19.0847 59.5955 18.3102C59.5955 17.5356 59.431 16.851 59.1021 16.2562C58.7868 15.6477 58.3414 15.1774 57.7657 14.8454C57.2038 14.4997 56.5528 14.3268 55.8126 14.3268C55.0862 14.3268 54.4352 14.4997 53.8595 14.8454C53.2976 15.1774 52.8521 15.6477 52.5232 16.2562C52.2079 16.851 52.0503 17.5356 52.0503 18.3102C52.0503 19.0847 52.2148 19.7694 52.5437 20.3641C52.8727 20.9589 53.3181 21.4291 53.8801 21.7749C54.4557 22.1069 55.1136 22.2728 55.8538 22.2728Z" fill="#FFF6D4"/>
<path d="M64.6299 25.5508V11.028H70.592C71.6748 11.028 72.6342 11.2424 73.4703 11.6712C74.3064 12.0861 74.9574 12.667 75.4234 13.4139C75.9031 14.147 76.143 14.9976 76.143 15.9658C76.143 16.934 75.9031 17.7984 75.4234 18.5591C74.9574 19.306 74.3064 19.8939 73.4703 20.3226C72.6342 20.7376 71.6748 20.945 70.592 20.945H68.4333V25.5508H64.6299ZM72.3601 25.5508L69.1529 19.8454L72.0106 17.6878L76.7187 25.5508H72.3601ZM68.4333 17.4181H70.3865C70.7291 17.4181 71.0306 17.3558 71.2911 17.2313C71.5515 17.1069 71.7571 16.934 71.9078 16.7127C72.0586 16.4914 72.134 16.2424 72.134 15.9658C72.134 15.5508 71.9695 15.212 71.6406 14.9492C71.3253 14.6726 70.9073 14.5342 70.3865 14.5342H68.4333V17.4181Z" fill="#FFF6D4"/>
<path d="M77.6456 25.5508V11.028H81.449V25.5508H77.6456Z" fill="#FFF6D4"/>
<path d="M93.2846 25.5508L88.0215 11.028H91.8044L97.3142 25.5508H93.2846ZM82.2033 25.5508L87.7131 11.028H91.496L86.2328 25.5508H82.2033ZM84.7937 23.2272V19.8454H94.7443V23.2272H84.7937Z" fill="#FFF6D4"/>
<path d="M98.0754 25.5508V11.028H101.879V22.0239H107.8V25.5508H98.0754Z" fill="#FFF6D4"/>
</g>
<defs>
<filter id="filter0_ddddddi_6019_94" x="-0.000195503" y="-0.000195503" width="118.6" height="36.6" filterUnits="userSpaceOnUse" color-interpolation-filters="sRGB">
<feFlood flood-opacity="0" result="BackgroundImageFix"/>
<feColorMatrix in="SourceAlpha" type="matrix" values="0 0 0 0 0 0 0 0 0 0 0 0 0 0 0 0 0 0 127 0" result="hardAlpha"/>
<feOffset/>
<feGaussianBlur stdDeviation="5.4"/>
<feComposite in2="hardAlpha" operator="out"/>
<feColorMatrix type="matrix" values="0 0 0 0 1 0 0 0 0 0.482353 0 0 0 0 0 0 0 0 1 0"/>
<feBlend mode="normal" in2="BackgroundImageFix" result="effect1_dropShadow_6019_94"/>
<feColorMatrix in="SourceAlpha" type="matrix" values="0 0 0 0 0 0 0 0 0 0 0 0 0 0 0 0 0 0 127 0" result="hardAlpha"/>
<feOffset/>
<feGaussianBlur stdDeviation="2.75"/>
<feComposite in2="hardAlpha" operator="out"/>
<feColorMatrix type="matrix" values="0 0 0 0 1 0 0 0 0 0.482353 0 0 0 0 0 0 0 0 1 0"/>
<feBlend mode="normal" in2="effect1_dropShadow_6019_94" result="effect2_dropShadow_6019_94"/>
<feColorMatrix in="SourceAlpha" type="matrix" values="0 0 0 0 0 0 0 0 0 0 0 0 0 0 0 0 0 0 127 0" result="hardAlpha"/>
<feOffset/>
<feGaussianBlur stdDeviation="0.75"/>
<feComposite in2="hardAlpha" operator="out"/>
<feColorMatrix type="matrix" values="0 0 0 0 1 0 0 0 0 0.482353 0 0 0 0 0 0 0 0 1 0"/>
<feBlend mode="normal" in2="effect2_dropShadow_6019_94" result="effect3_dropShadow_6019_94"/>
<feColorMatrix in="SourceAlpha" type="matrix" values="0 0 0 0 0 0 0 0 0 0 0 0 0 0 0 0 0 0 127 0" result="hardAlpha"/>
<feOffset/>
<feGaussianBlur stdDeviation="0.7"/>
<feComposite in2="hardAlpha" operator="out"/>
<feColorMatrix type="matrix" values="0 0 0 0 1 0 0 0 0 0.482353 0 0 0 0 0 0 0 0 1 0"/>
<feBlend mode="normal" in2="effect3_dropShadow_6019_94" result="effect4_dropShadow_6019_94"/>
<feColorMatrix in="SourceAlpha" type="matrix" values="0 0 0 0 0 0 0 0 0 0 0 0 0 0 0 0 0 0 127 0" result="hardAlpha"/>
<feOffset/>
<feGaussianBlur stdDeviation="0.7"/>
<feComposite in2="hardAlpha" operator="out"/>
<feColorMatrix type="matrix" values="0 0 0 0 1 0 0 0 0 0.482353 0 0 0 0 0 0 0 0 1 0"/>
<feBlend mode="normal" in2="effect4_dropShadow_6019_94" result="effect5_dropShadow_6019_94"/>
<feColorMatrix in="SourceAlpha" type="matrix" values="0 0 0 0 0 0 0 0 0 0 0 0 0 0 0 0 0 0 127 0" result="hardAlpha"/>
<feOffset/>
<feGaussianBlur stdDeviation="0.7"/>
<feComposite in2="hardAlpha" operator="out"/>
<feColorMatrix type="matrix" values="0 0 0 0 1 0 0 0 0 0.482353 0 0 0 0 0 0 0 0 1 0"/>
<feBlend mode="normal" in2="effect5_dropShadow_6019_94" result="effect6_dropShadow_6019_94"/>
<feBlend mode="normal" in="SourceGraphic" in2="effect6_dropShadow_6019_94" result="shape"/>
<feColorMatrix in="SourceAlpha" type="matrix" values="0 0 0 0 0 0 0 0 0 0 0 0 0 0 0 0 0 0 127 0" result="hardAlpha"/>
<feOffset/>
<feGaussianBlur stdDeviation="0.1"/>
<feComposite in2="hardAlpha" operator="arithmetic" k2="-1" k3="1"/>
<feColorMatrix type="matrix" values="0 0 0 0 1 0 0 0 0 0.483333 0 0 0 0 0 0 0 0 1 0"/>
<feBlend mode="normal" in2="shape" result="effect7_innerShadow_6019_94"/>
</filter>
</defs>
</svg>
