<svg width="25" height="25" viewBox="0 0 25 25" fill="none" xmlns="http://www.w3.org/2000/svg">
<path d="M19.1792 22.3823L16.2542 19.4823L14.7542 20.9823C14.5709 21.1656 14.3375 21.2573 14.0542 21.2573C13.7709 21.2573 13.5375 21.1656 13.3542 20.9823C12.9709 20.599 12.7792 20.124 12.7792 19.5573C12.7792 18.9906 12.9709 18.5156 13.3542 18.1323L17.5792 13.9073C17.9625 13.524 18.4375 13.3323 19.0042 13.3323C19.5709 13.3323 20.0459 13.524 20.4292 13.9073C20.6125 14.0906 20.7042 14.324 20.7042 14.6073C20.7042 14.8906 20.6125 15.124 20.4292 15.3073L18.9292 16.8073L21.8292 19.7323C22.0292 19.9323 22.1292 20.1656 22.1292 20.4323C22.1292 20.699 22.0292 20.9323 21.8292 21.1323L20.5792 22.3823C20.3792 22.5823 20.1459 22.6823 19.8792 22.6823C19.6125 22.6823 19.3792 22.5823 19.1792 22.3823ZM21.8292 6.98231L10.7792 18.0323L10.9042 18.1323C11.2875 18.5156 11.4792 18.9906 11.4792 19.5573C11.4792 20.124 11.2875 20.599 10.9042 20.9823C10.7209 21.1656 10.4875 21.2573 10.2042 21.2573C9.92088 21.2573 9.68754 21.1656 9.50421 20.9823L8.00421 19.4823L5.07921 22.3823C4.87921 22.5823 4.64588 22.6823 4.37921 22.6823C4.11254 22.6823 3.87921 22.5823 3.67921 22.3823L2.42921 21.1323C2.22921 20.9323 2.12921 20.699 2.12921 20.4323C2.12921 20.1656 2.22921 19.9323 2.42921 19.7323L5.32921 16.8073L3.82921 15.3073C3.64588 15.124 3.55421 14.8906 3.55421 14.6073C3.55421 14.324 3.64588 14.0906 3.82921 13.9073C4.21254 13.524 4.68754 13.3323 5.25421 13.3323C5.82088 13.3323 6.29588 13.524 6.67921 13.9073L6.77921 14.0323L17.5542 3.25731C17.7375 3.07398 17.9502 2.93231 18.1922 2.83231C18.4342 2.73231 18.6882 2.68231 18.9542 2.68231H21.1292C21.4125 2.68231 21.6502 2.77831 21.8422 2.97031C22.0342 3.16231 22.1299 3.39965 22.1292 3.68231V6.25731C22.1292 6.39065 22.1042 6.51998 22.0542 6.64531C22.0042 6.77065 21.9292 6.88298 21.8292 6.98231ZM6.35421 10.9073L2.70421 7.25731C2.52088 7.07398 2.37921 6.86165 2.27921 6.62031C2.17921 6.37898 2.12921 6.12464 2.12921 5.85731V3.68231C2.12921 3.39898 2.22521 3.16165 2.41721 2.97031C2.60921 2.77898 2.84654 2.68298 3.12921 2.68231H5.30421C5.57088 2.68231 5.82521 2.73231 6.06721 2.83231C6.30921 2.93231 6.52154 3.07398 6.70421 3.25731L10.3542 6.90731C10.5542 7.10731 10.6542 7.34498 10.6542 7.62031C10.6542 7.89565 10.5542 8.13298 10.3542 8.33231L7.77921 10.9073C7.57921 11.1073 7.34188 11.2073 7.06721 11.2073C6.79254 11.2073 6.55488 11.1073 6.35421 10.9073Z" fill="url(#paint0_linear_3943_154610)"/>
<defs>
<linearGradient id="paint0_linear_3943_154610" x1="12.1292" y1="2.68231" x2="12.1292" y2="22.6823" gradientUnits="userSpaceOnUse">
<stop/>
<stop offset="1" stop-color="#2C1711"/>
</linearGradient>
</defs>
</svg>
