<svg width="24" height="25" viewBox="0 0 24 25" fill="none" xmlns="http://www.w3.org/2000/svg">
<path d="M3 9.49229V17.6203C3 18.6633 3 19.1853 3.283 19.5783C3.566 19.9713 4.061 20.1363 5.051 20.4663L6.216 20.8543C7.583 21.3103 8.266 21.5383 8.955 21.4453L9 21.4393V7.43929C8.88735 7.45607 8.77383 7.46642 8.66 7.47029C8.12 7.48929 7.586 7.31029 6.519 6.95529C5.121 6.48929 4.422 6.25629 3.89 6.49329C3.70147 6.57717 3.53228 6.69904 3.393 6.85129C3 7.28229 3 8.01829 3 9.49229ZM21 16.0723V7.94529C21 6.90229 21 6.38029 20.717 5.98729C20.434 5.59429 19.939 5.42929 18.949 5.09929L17.784 4.71129C16.417 4.25529 15.734 4.02729 15.045 4.12029L15 4.12529V18.1253C15.1133 18.1086 15.2267 18.0983 15.34 18.0943C15.88 18.0753 16.414 18.2543 17.481 18.6093C18.879 19.0753 19.578 19.3083 20.11 19.0713C20.2985 18.9874 20.4677 18.8655 20.607 18.7133C21 18.2823 21 17.5463 21 16.0723Z" fill="url(#paint0_linear_3943_154595)"/>
<path d="M9.247 7.39231C9.165 7.41031 9.08267 7.42597 9 7.43931V21.4393C9.67 21.3353 10.269 20.9363 11.442 20.1543L12.824 19.2323C13.76 18.6083 14.228 18.2963 14.754 18.1723C14.834 18.1523 14.916 18.1366 15 18.1253V4.12531C14.33 4.22831 13.731 4.62831 12.558 5.40931L11.176 6.33131C10.24 6.95531 9.772 7.26731 9.246 7.39131" fill="url(#paint1_linear_3943_154595)"/>
<defs>
<linearGradient id="paint0_linear_3943_154595" x1="12" y1="4.09979" x2="12" y2="21.4658" gradientUnits="userSpaceOnUse">
<stop stop-color="#E3F0FF"/>
<stop offset="1" stop-color="#80809F"/>
</linearGradient>
<linearGradient id="paint1_linear_3943_154595" x1="10.2178" y1="1.78229" x2="13.7178" y2="11.2823" gradientUnits="userSpaceOnUse">
<stop stop-color="#CFD9EB"/>
<stop offset="1" stop-color="white"/>
</linearGradient>
</defs>
</svg>
