<svg width="25" height="25" viewBox="0 0 25 25" fill="none" xmlns="http://www.w3.org/2000/svg">
<g clip-path="url(#clip0_4158_535)">
<path d="M14.0646 2.78226C14.0646 3.22626 13.8716 3.62526 13.5646 3.90026V5.78226H18.5646C19.3602 5.78226 20.1233 6.09833 20.6859 6.66094C21.2485 7.22355 21.5646 7.98661 21.5646 8.78226V18.7823C21.5646 19.5779 21.2485 20.341 20.6859 20.9036C20.1233 21.4662 19.3602 21.7823 18.5646 21.7823H6.56458C5.76893 21.7823 5.00586 21.4662 4.44325 20.9036C3.88065 20.341 3.56458 19.5779 3.56458 18.7823V8.78226C3.56458 7.98661 3.88065 7.22355 4.44325 6.66094C5.00586 6.09833 5.76893 5.78226 6.56458 5.78226H11.5646V3.90026C11.3781 3.73345 11.2363 3.52264 11.1521 3.28703C11.0679 3.05141 11.0439 2.79847 11.0825 2.55125C11.121 2.30402 11.2208 2.07036 11.3727 1.87154C11.5246 1.67272 11.7238 1.51506 11.9522 1.41291C12.1806 1.31077 12.431 1.26738 12.6804 1.28671C12.9299 1.30603 13.1706 1.38745 13.3805 1.52356C13.5905 1.65966 13.763 1.84613 13.8825 2.06597C14.002 2.28581 14.0646 2.53205 14.0646 2.78226ZM0.564575 10.7823H2.56458V16.7823H0.564575V10.7823ZM24.5646 10.7823H22.5646V16.7823H24.5646V10.7823ZM9.56458 15.2823C9.9624 15.2823 10.3439 15.1242 10.6252 14.8429C10.9065 14.5616 11.0646 14.1801 11.0646 13.7823C11.0646 13.3844 10.9065 13.0029 10.6252 12.7216C10.3439 12.4403 9.9624 12.2823 9.56458 12.2823C9.16675 12.2823 8.78522 12.4403 8.50391 12.7216C8.22261 13.0029 8.06458 13.3844 8.06458 13.7823C8.06458 14.1801 8.22261 14.5616 8.50391 14.8429C8.78522 15.1242 9.16675 15.2823 9.56458 15.2823ZM17.0646 13.7823C17.0646 13.3844 16.9065 13.0029 16.6252 12.7216C16.3439 12.4403 15.9624 12.2823 15.5646 12.2823C15.1668 12.2823 14.7852 12.4403 14.5039 12.7216C14.2226 13.0029 14.0646 13.3844 14.0646 13.7823C14.0646 14.1801 14.2226 14.5616 14.5039 14.8429C14.7852 15.1242 15.1668 15.2823 15.5646 15.2823C15.9624 15.2823 16.3439 15.1242 16.6252 14.8429C16.9065 14.5616 17.0646 14.1801 17.0646 13.7823Z" fill="url(#paint0_linear_4158_535)"/>
</g>
<defs>
<linearGradient id="paint0_linear_4158_535" x1="12.5646" y1="1.28223" x2="12.5646" y2="21.7823" gradientUnits="userSpaceOnUse">
<stop stop-color="#E3F0FF"/>
<stop offset="1" stop-color="#80809F"/>
</linearGradient>
<clipPath id="clip0_4158_535">
<rect width="24" height="24" fill="white" transform="translate(0.564575 0.782288)"/>
</clipPath>
</defs>
</svg>
