<svg width="25" height="25" viewBox="0 0 25 25" fill="none" xmlns="http://www.w3.org/2000/svg">
<path d="M4.47187 4.43729C4.29087 4.79729 4.20187 5.24329 4.02387 6.13329L3.42587 9.12329C3.34112 9.53096 3.34046 9.95165 3.42394 10.3596C3.50742 10.7675 3.67328 11.1541 3.91136 11.4957C4.14944 11.8374 4.45474 12.1268 4.80856 12.3463C5.16238 12.5658 5.55729 12.7108 5.96909 12.7724C6.3809 12.834 6.80095 12.811 7.20353 12.7046C7.6061 12.5982 7.98273 12.4108 8.31036 12.1538C8.63799 11.8968 8.90972 11.5757 9.10893 11.21C9.30813 10.8444 9.43061 10.4419 9.46887 10.0273L9.53887 9.33729C9.50097 9.77613 9.55503 10.218 9.6976 10.6348C9.84016 11.0516 10.0681 11.434 10.3668 11.7577C10.6656 12.0814 11.0285 12.3392 11.4326 12.5147C11.8366 12.6901 12.2727 12.7794 12.7132 12.7767C13.1537 12.7741 13.5887 12.6796 13.9906 12.4992C14.3925 12.3189 14.7523 12.0568 15.0471 11.7295C15.342 11.4022 15.5653 11.0171 15.7028 10.5986C15.8403 10.1802 15.8891 9.73764 15.8459 9.29929L15.9189 10.0273C15.9571 10.4419 16.0796 10.8444 16.2788 11.21C16.478 11.5757 16.7498 11.8968 17.0774 12.1538C17.405 12.4108 17.7816 12.5982 18.1842 12.7046C18.5868 12.811 19.0068 12.834 19.4186 12.7724C19.8305 12.7108 20.2254 12.5658 20.5792 12.3463C20.933 12.1268 21.2383 11.8374 21.4764 11.4957C21.7145 11.1541 21.8803 10.7675 21.9638 10.3596C22.0473 9.95165 22.0466 9.53096 21.9619 9.12329L21.3639 6.13329C21.1859 5.24329 21.0969 4.79829 20.9159 4.43729C20.7273 4.06133 20.4617 3.72922 20.1365 3.46254C19.8112 3.19585 19.4335 3.00054 19.0279 2.88929C18.6379 2.78229 18.1839 2.78229 17.2759 2.78229H8.11187C7.20387 2.78229 6.74987 2.78229 6.35987 2.88929C5.95424 3.00054 5.57653 3.19585 5.25127 3.46254C4.92601 3.72922 4.66047 4.06133 4.47187 4.43729ZM18.9629 14.2823C19.7442 14.2843 20.5128 14.0841 21.1939 13.7013V14.7823C21.1939 18.5533 21.1939 20.4393 20.0219 21.6103C19.0789 22.5543 17.6739 22.7373 15.1939 22.7733V19.2823C15.1939 18.3473 15.1939 17.8803 14.9929 17.5323C14.8612 17.3043 14.6719 17.1149 14.4439 16.9833C14.0959 16.7823 13.6289 16.7823 12.6939 16.7823C11.7589 16.7823 11.2919 16.7823 10.9439 16.9833C10.7159 17.1149 10.5265 17.3043 10.3949 17.5323C10.1939 17.8803 10.1939 18.3473 10.1939 19.2823V22.7733C7.71387 22.7373 6.30887 22.5533 5.36587 21.6103C4.19387 20.4393 4.19387 18.5533 4.19387 14.7823V13.7013C4.87528 14.0843 5.6442 14.2844 6.42587 14.2823C7.58151 14.283 8.69413 13.844 9.53787 13.0543C10.3976 13.8466 11.5247 14.2852 12.6939 14.2823C13.863 14.2852 14.9902 13.8466 15.8499 13.0543C16.6936 13.844 17.8072 14.283 18.9629 14.2823Z" fill="url(#paint0_linear_3943_154614)"/>
<defs>
<linearGradient id="paint0_linear_3943_154614" x1="12.6939" y1="2.78229" x2="12.6939" y2="22.7733" gradientUnits="userSpaceOnUse">
<stop stop-color="#E3F0FF"/>
<stop offset="1" stop-color="#80809F"/>
</linearGradient>
</defs>
</svg>
