<svg width="25" height="25" viewBox="0 0 25 25" fill="none" xmlns="http://www.w3.org/2000/svg">
<path fill-rule="evenodd" clip-rule="evenodd" d="M21.2685 10.9533L21.2715 14.5763C21.2455 14.9216 21.2125 15.2663 21.1725 15.6103C21.1371 15.8938 21.007 16.1572 20.8034 16.3577C20.5998 16.5582 20.3346 16.6842 20.0505 16.7153C18.2105 16.9213 16.3065 16.9213 14.4665 16.7153C14.1824 16.6842 13.9172 16.5582 13.7136 16.3577C13.51 16.1572 13.3799 15.8938 13.3445 15.6103C13.1243 13.7314 13.1243 11.8332 13.3445 9.95429C13.3799 9.67073 13.51 9.40741 13.7136 9.20689C13.9172 9.00638 14.1824 8.88039 14.4665 8.84929C16.3222 8.64407 18.1948 8.64407 20.0505 8.84929C20.6375 8.91429 21.1055 9.37929 21.1725 9.95429C21.2112 10.287 21.2432 10.6203 21.2685 10.9543M17.2585 11.2823C16.8607 11.2823 16.4791 11.4403 16.1978 11.7216C15.9165 12.0029 15.7585 12.3845 15.7585 12.7823C15.7585 13.1801 15.9165 13.5616 16.1978 13.8429C16.4791 14.1243 16.8607 14.2823 17.2585 14.2823C17.6563 14.2823 18.0379 14.1243 18.3192 13.8429C18.6005 13.5616 18.7585 13.1801 18.7585 12.7823C18.7585 12.3845 18.6005 12.0029 18.3192 11.7216C18.0379 11.4403 17.6563 11.2823 17.2585 11.2823Z" fill="url(#paint0_linear_3943_154618)"/>
<path d="M20.6625 6.8223C20.8175 7.0913 20.5255 7.3923 20.2165 7.3583C18.2505 7.1416 16.2666 7.1416 14.3005 7.3583C13.6794 7.42691 13.0997 7.70353 12.6556 8.14323C12.2116 8.58293 11.9292 9.15986 11.8545 9.7803C11.6227 11.7749 11.6227 13.7897 11.8545 15.7843C11.9292 16.4047 12.2116 16.9817 12.6556 17.4214C13.0997 17.8611 13.6794 18.1377 14.3005 18.2063C16.2666 18.423 18.2505 18.423 20.2165 18.2063C20.5275 18.1713 20.8225 18.4753 20.6655 18.7463C20.2729 19.4235 19.7259 19.9984 19.069 20.4241C18.4121 20.8499 17.664 21.1144 16.8855 21.1963L16.2335 21.2643C12.9226 21.6121 9.58325 21.589 6.2775 21.1953L5.8455 21.1443C4.97892 21.0413 4.17126 20.6529 3.54985 20.0402C2.92845 19.4275 2.52865 18.6253 2.4135 17.7603C1.97219 14.4563 1.97219 11.1083 2.4135 7.8043C2.52865 6.93925 2.92845 6.13714 3.54985 5.52442C4.17126 4.91171 4.97892 4.52325 5.8455 4.4203L6.2775 4.3693C9.58325 3.97562 12.9226 3.95248 16.2335 4.3003L16.8855 4.3693C17.664 4.45114 18.412 4.71606 19.0685 5.1424C19.7249 5.56874 20.2712 6.14439 20.6625 6.8223Z" fill="url(#paint1_linear_3943_154618)"/>
<defs>
<linearGradient id="paint0_linear_3943_154618" x1="17.2254" y1="8.69537" x2="17.2254" y2="16.8698" gradientUnits="userSpaceOnUse">
<stop stop-color="#E3F0FF"/>
<stop offset="1" stop-color="#80809F"/>
</linearGradient>
<linearGradient id="paint1_linear_3943_154618" x1="11.3958" y1="4.05566" x2="11.3958" y2="21.5089" gradientUnits="userSpaceOnUse">
<stop stop-color="#E3F0FF"/>
<stop offset="1" stop-color="#80809F"/>
</linearGradient>
</defs>
</svg>
